<svg aria-hidden="true" style="width:0;height:0;position:absolute;overflow:hidden" xmlns="http://www.w3.org/2000/svg"><defs><symbol id="icon-search" viewBox="0 0 30 32"><path d="M12.8 26.4a12.722 12.722 0 0 0 7.835-2.701l7.034 7.034 2.262-2.262-7.034-7.034a12.72 12.72 0 0 0 2.702-7.837c0-7.058-5.742-12.8-12.8-12.8s-12.8 5.742-12.8 12.8c0 7.058 5.742 12.8 12.8 12.8zm0-22.4c5.294 0 9.6 4.306 9.6 9.6s-4.306 9.6-9.6 9.6-9.6-4.306-9.6-9.6S7.506 4 12.8 4z"/></symbol><symbol id="icon-arrow" viewBox="0 0 32 32"><path d="m16.724 21.241 10.62-11.146a1.001 1.001 0 0 0 0-1.38l-.012-.012a.921.921 0 0 0-1.334 0l-10 10.496L6.002 8.703a.936.936 0 0 0-.667-.287.908.908 0 0 0-.667.287l-.012.012a1.001 1.001 0 0 0 0 1.38l10.62 11.146a.994.994 0 0 0 .724.31.993.993 0 0 0 .724-.31z"/></symbol><symbol id="icon-close" viewBox="0 0 32 32"><path d="m17.253 16 7.37-7.369a.889.889 0 0 0-1.255-1.252l.001-.001-7.37 7.369-7.368-7.378A.893.893 0 1 0 7.368 8.63l.001.001 7.378 7.37-7.378 7.369a.889.889 0 0 0 .567 1.576.887.887 0 0 0 .685-.322l.001-.001L16 17.254l7.369 7.37a.889.889 0 0 0 1.252-1.255l.001.001L17.253 16z"/><symbol id="icon-heart" viewBox="0 0 35 32"><path fill="#fd5103" style="fill:var(--color1,#fd5103)" d="m17.684 32-2.565-2.302C6.012 21.555 0 16.186 0 9.592 0 4.219 4.28 0 9.726 0c3.077 0 6.029 1.413 7.958 3.645A10.636 10.636 0 0 1 25.638 0h.003c5.447 0 9.726 4.221 9.726 9.592 0 6.592-6.013 11.963-15.119 20.125l-2.565 2.284z"/></symbol></symbol></defs></svg>