<svg aria-hidden="true" style="width:0;height:0;position:absolute;overflow:hidden" xmlns="http://www.w3.org/2000/svg"><defs><symbol id="icon-search" viewBox="0 0 30 32"><path d="M12.8 26.4a12.722 12.722 0 0 0 7.835-2.701l7.034 7.034 2.262-2.262-7.034-7.034a12.72 12.72 0 0 0 2.702-7.837c0-7.058-5.742-12.8-12.8-12.8s-12.8 5.742-12.8 12.8c0 7.058 5.742 12.8 12.8 12.8zm0-22.4c5.294 0 9.6 4.306 9.6 9.6s-4.306 9.6-9.6 9.6-9.6-4.306-9.6-9.6S7.506 4 12.8 4z"/></symbol><symbol id="icon-arrow" viewBox="0 0 32 32"><path d="m16.724 21.241 10.62-11.146a1.001 1.001 0 0 0 0-1.38l-.012-.012a.921.921 0 0 0-1.334 0l-10 10.496L6.002 8.703a.936.936 0 0 0-.667-.287.908.908 0 0 0-.667.287l-.012.012a1.001 1.001 0 0 0 0 1.38l10.62 11.146a.994.994 0 0 0 .724.31.993.993 0 0 0 .724-.31z"/></symbol></defs></svg>