<svg width="24" height="24" viewBox="0 0 24 24" fill="none" xmlns="http://www.w3.org/2000/svg">
<path d="M12.543 15.9304L20.508 7.57094C20.641 7.43145 20.7151 7.24614 20.7151 7.05344C20.7151 6.86073 20.641 6.67542 20.508 6.53594L20.499 6.52694C20.4345 6.45908 20.357 6.40505 20.271 6.36813C20.185 6.33121 20.0923 6.31217 19.9988 6.31217C19.9052 6.31217 19.8126 6.33121 19.7266 6.36813C19.6406 6.40505 19.563 6.45908 19.4985 6.52694L11.9985 14.3989L4.50151 6.52693C4.43705 6.45908 4.35946 6.40505 4.27346 6.36813C4.18746 6.33121 4.09485 6.31217 4.00126 6.31217C3.90767 6.31217 3.81506 6.33121 3.72906 6.36813C3.64306 6.40505 3.56547 6.45908 3.50101 6.52693L3.49201 6.53593C3.35904 6.67542 3.28486 6.86073 3.28486 7.05343C3.28486 7.24614 3.35904 7.43145 3.49201 7.57093L11.457 15.9304C11.5271 16.004 11.6113 16.0625 11.7046 16.1025C11.798 16.1425 11.8985 16.1631 12 16.1631C12.1016 16.1631 12.202 16.1425 12.2954 16.1025C12.3887 16.0625 12.473 16.004 12.543 15.9304Z" fill="black"/>
</svg>
